<?xml version="1.0" encoding="UTF-8"?>
<svg xmlns="http://www.w3.org/2000/svg" xmlns:xlink="http://www.w3.org/1999/xlink" width="786.95996pt" height="786.95996pt" viewBox="0 0 786.95996 786.95996" version="1.1">
<g id="surface1">
<rect x="0" y="0" width="786.95996" height="786.95996" style="fill:rgb(100%,100%,100%);fill-opacity:1;stroke:none;"/>
<path style="fill:none;stroke-width:30;stroke-linecap:round;stroke-linejoin:round;stroke:rgb(4.708862%,65.489197%,53.729248%);stroke-opacity:1;stroke-miterlimit:4;" d="M 0.159532 142.309538 L 0.0799017 142.170059 C 0.0799017 142.170059 -0.000912638 142.020524 0.050508 141.400708 C 0.050508 141.400708 0.0896247 140.780302 1.239286 138.369355 C 1.239286 138.369355 2.399241 135.959236 6.140577 128.940749 C 6.140577 128.940749 9.879666 121.920487 14.910909 111.499865 C 14.910909 111.499865 19.930083 101.080663 26.340862 86.598927 C 26.340862 86.598927 32.750693 72.109146 38.479364 58.380602 C 38.479364 58.380602 44.210637 44.639518 48.170305 34.989387 C 48.170305 34.989387 52.129972 25.339256 55.190698 18.480413 C 55.190698 18.480413 58.23912 11.620979 60.919387 6.709382 C 60.919387 6.709382 63.59989 1.799797 64.699021 0.899638 C 64.699021 0.899638 65.800163 -0.000757188 66.900722 0.930008 C 66.900722 0.930008 67.989805 1.849891 70.209851 5.379199 C 70.209851 5.379199 72.420668 8.899399 76.709349 16.300052 C 76.709349 16.300052 80.989749 23.699642 87.599885 34.91945 C 87.599885 34.91945 94.219131 46.13003 102.050181 58.800675 C 102.050181 58.800675 109.870939 71.470492 117.630442 82.840471 C 117.630442 82.840471 125.390772 94.200157 131.559314 102.690646 C 131.559314 102.690646 137.720402 111.169777 141.749147 116.639437 C 141.749147 116.639437 145.780139 122.110871 148.370338 125.198986 C 148.370338 125.198986 150.949533 128.28024 152.239754 129.419095 C 152.239754 129.419095 153.530211 130.559961 154.000145 130.810503 L 154.459786 131.060218 " transform="matrix(1.915694,0.225511,-0.225511,1.915694,278.708573,23.869846)"/>
<path style="fill:none;stroke-width:30;stroke-linecap:round;stroke-linejoin:round;stroke:rgb(4.708862%,65.489197%,53.729248%);stroke-opacity:1;stroke-miterlimit:4;" d="M 0.239659 -0.000678556 L 0.120765 5.190537 C 0.120765 5.190537 -0.000375801 10.379978 0.348959 23.619373 C 0.348959 23.619373 0.690248 36.859714 2.399908 60.719581 C 2.399908 60.719581 4.110395 84.569156 7.229499 110.840502 C 7.229499 110.840502 10.349194 137.099544 14.029063 161.500293 C 14.029063 161.500293 17.70976 185.89075 21.219328 207.770856 C 21.219328 207.770856 24.719431 229.639842 28.120169 249.989176 C 28.120169 249.989176 31.510851 270.339695 33.809512 283.249704 C 33.809512 283.249704 36.109001 296.149421 37.629878 305.18906 C 37.629878 305.18906 39.139515 314.219827 41.309494 325.950085 L 43.479474 337.680343 " transform="matrix(1.915694,0.225511,-0.225511,1.915694,401.384484,89.958973)"/>
</g>
</svg>
